<svg width="150" height="143" viewBox="0 0 150 143" fill="none" xmlns="http://www.w3.org/2000/svg">
<g filter="url(#filter0_d_5_1006)">
<path fill-rule="evenodd" clip-rule="evenodd" d="M35.9039 21.5494L35.9436 21.8437C36.3014 21.9713 36.5777 22.2722 36.6198 22.6569L39.0525 44.8961L40.751 57.4901L46.4804 70.1219L60.6857 51.7721C60.7611 51.5497 60.8256 51.3577 60.8788 51.1985C60.9386 51.0195 60.9841 50.882 61.0146 50.7894L61.0491 50.6844L61.0598 50.6512L61.0604 50.6496C61.0604 50.6496 61.0604 50.6495 61.0611 50.6497C61.0618 50.6498 61.0629 50.65 61.0651 50.6506C61.0726 50.6525 61.0923 50.6578 61.1438 50.6718L61.0605 50.6491L61.0705 50.6184L61.0888 50.5911C62.6179 48.3092 64.0732 46.7625 65.8429 45.7107L66.4694 45.056C66.592 44.928 66.7491 44.8314 66.925 44.776L73.123 42.8222C73.7746 42.6168 74.4653 43.0211 74.5337 43.648L75.0217 48.1092L80.2699 83.8743L82.195 92.8932L82.3242 93.3657C82.3797 93.5678 82.5047 93.7489 82.6804 93.8817L86.0451 96.4226C87.0491 92.9405 88.077 89.6093 89.0788 86.3645C94.7574 67.9687 99.5767 52.3555 94.163 27.8231L94.6863 27.7266C95.1573 29.862 95.5514 31.9306 95.8745 33.9399L95.332 29.1959C95.309 28.9915 95.3565 28.7948 95.4569 28.6266C95.4249 28.515 95.4249 28.515 95.4254 28.515L95.4259 28.5148L95.4291 28.514L95.442 28.5111L95.4905 28.4996C95.5098 28.495 95.5338 28.4894 95.5621 28.4828C95.7255 28.2968 95.9631 28.1651 96.2408 28.1283L98.8008 27.7886C98.8521 27.7783 98.9044 27.7679 98.9573 27.7575C101.08 27.3372 103.926 26.8322 106.806 26.4954C108.29 26.322 109.787 26.1925 111.203 26.1428L111.622 26.0872C111.726 26.0733 111.833 26.0738 111.937 26.0885L112.173 26.1215C113.145 26.1139 114.065 26.1503 114.899 26.2435C115.921 26.3577 116.831 26.5587 117.555 26.8785L117.922 26.9302C118.395 26.9967 118.762 27.3424 118.82 27.7765L118.822 27.7911C119.035 28.0569 119.183 28.3611 119.251 28.7075C119.789 31.4113 121.793 46.9301 120.657 64.1578C120.186 71.2958 119.176 78.7335 117.297 85.6781C116.819 88.0511 116.316 90.1658 115.785 91.9686C115.16 94.0872 113.74 96.5686 112.109 98.9923C110.266 102.363 108.064 105.4 105.44 107.952C105.014 108.536 104.709 108.996 104.571 109.298C103.665 111.277 82.6804 114.04 80.4093 111.231C80.1423 111.315 79.8678 111.351 79.5869 111.337C79.5351 111.335 79.4833 111.331 79.4315 111.325C79.2115 111.605 78.2909 111.856 77.4125 112.096C76.3343 112.39 75.3186 112.667 75.7346 112.96C76.5191 113.511 71.3229 110.107 70.3945 108.078C70.2378 107.735 70.0789 107.405 69.9144 107.063C69.1047 105.379 68.1588 103.411 66.6565 98.3147C64.849 92.1824 63.1008 85.8538 61.8505 74.6387C61.1128 68.0208 60.9668 60.8844 60.971 56.1456L56.5101 64.5231C55.2547 67.6277 53.8229 70.9614 52.2829 74.1872C49.6451 79.7118 46.6788 84.9419 43.7235 88.1516C43.0449 88.8888 42.3608 89.5258 41.675 90.0369C41.618 90.1248 41.5778 90.2 41.5584 90.26C41.4876 90.4792 40.964 90.6808 40.3253 90.8722C39.9701 91.045 39.6151 91.1792 39.2609 91.2715C38.9907 91.3423 38.7209 91.3882 38.4522 91.4077C37.8863 91.5942 37.5495 91.7782 37.8204 91.9686C38.1336 92.1888 37.4935 91.7782 36.5523 91.0767C35.9976 90.8312 35.4639 90.4523 34.9524 89.9354C34.7655 89.7465 34.5809 89.5444 34.3988 89.3291C33.5421 88.5588 32.7837 87.7494 32.4804 87.0869C32.3237 86.7443 32.1648 86.4138 32.0003 86.072C31.1907 84.3879 30.2447 82.4201 28.7424 77.3236C26.9349 71.1913 25.1867 64.8628 23.9364 53.6476L23.9305 53.5946C22.9373 46.9826 22.2196 40.7341 21.7431 36.0428C21.4885 33.5358 21.3027 31.4732 21.1806 30.0372C21.1196 29.3192 21.0744 28.7579 21.0445 28.3759C21.0296 28.1849 21.0184 28.0388 21.011 27.9403L21.0027 27.8288L21 27.7916C21 27.7911 21 27.791 21.2664 27.7748C21.4128 27.766 21.4787 27.7621 21.5085 27.7604C21.598 27.6411 21.7174 27.5393 21.8607 27.4644L28.6554 23.915C28.7133 23.8847 28.7741 23.8595 28.8371 23.8397L35.2089 21.8311C35.252 21.8175 35.2952 21.8066 35.3385 21.7982L35.9039 21.5494ZM80.0932 110.395C80.1129 110.399 80.1321 110.403 80.1519 110.407C80.154 110.535 80.169 110.659 80.1983 110.78C80.0365 110.827 79.8753 110.85 79.7145 110.852C79.8176 110.715 79.9468 110.56 80.0932 110.395ZM43.9313 70.6231L40.5931 58.4165L46.1159 70.5928L45.8392 70.9502C45.3117 71.6316 44.1528 71.433 43.9313 70.6231ZM45.6912 84.8414L49.5632 77.5697L49.8151 77.474L49.7226 77.2704L53.7753 69.6592C53.14 71.1054 52.4774 72.5597 51.7935 73.9919C49.8768 78.0061 47.7985 81.8377 45.6912 84.8414ZM79.7343 83.8948L76.5997 62.5335L78.3966 78.9614C78.402 79.0083 78.411 79.0552 78.4233 79.1011L79.7343 83.8948ZM86.4996 96.7658L87.8437 97.7807C87.6557 97.2012 87.5067 96.7492 87.3892 96.3962C87.1804 95.7685 87.1612 94.507 87.3711 93.8793L90.9537 83.1816L93.3567 74.1506L93.8389 71.9065C92.6064 76.7437 91.1235 81.5463 89.5797 86.5465V86.547C88.5613 89.8451 87.5163 93.2295 86.4996 96.7658ZM95.8147 62.7098L96.2782 60.5528C96.2884 60.5056 96.2948 60.4578 96.2974 60.4097L96.3685 59.0001C96.2083 60.2499 96.023 61.4852 95.8147 62.7098ZM97.0269 45.9608L97.091 44.6899C97.0936 44.6411 97.092 44.5921 97.0861 44.5434L96.8725 42.6715C96.9457 43.7848 96.997 44.8807 97.0269 45.9608ZM88.0685 99.0807C87.9141 100.156 86.9252 101.469 85.6948 102.855L88.0685 99.0807Z" fill="white" fill-opacity="0.8"/>
</g>
<defs>
<filter id="filter0_d_5_1006" x="0" y="0.549377" width="150" height="141.47" filterUnits="userSpaceOnUse" color-interpolation-filters="sRGB">
<feFlood flood-opacity="0" result="BackgroundImageFix"/>
<feColorMatrix in="SourceAlpha" type="matrix" values="0 0 0 0 0 0 0 0 0 0 0 0 0 0 0 0 0 0 127 0" result="hardAlpha"/>
<feOffset dx="4" dy="4"/>
<feGaussianBlur stdDeviation="12.5"/>
<feColorMatrix type="matrix" values="0 0 0 0 0 0 0 0 0 0 0 0 0 0 0 0 0 0 0.5 0"/>
<feBlend mode="normal" in2="BackgroundImageFix" result="effect1_dropShadow_5_1006"/>
<feBlend mode="normal" in="SourceGraphic" in2="effect1_dropShadow_5_1006" result="shape"/>
</filter>
</defs>
</svg>
