<svg width="150" height="143" viewBox="0 0 150 143" fill="none" xmlns="http://www.w3.org/2000/svg">
<g filter="url(#filter0_d_5_1028)">
<path fill-rule="evenodd" clip-rule="evenodd" d="M35.9039 21.5494L35.9436 21.8437C36.3014 21.9713 36.5777 22.2722 36.6198 22.6569L39.0525 44.8961L40.751 57.4901L46.4804 70.1219L60.6857 51.7721C60.7611 51.5497 60.8256 51.3577 60.8788 51.1985C60.9386 51.0195 60.9841 50.882 61.0146 50.7894L61.0491 50.6844L61.0598 50.6512L61.0604 50.6496C61.0604 50.6496 61.0604 50.6495 61.0611 50.6497C61.0618 50.6498 61.0629 50.65 61.0651 50.6506C61.0726 50.6525 61.0923 50.6578 61.1438 50.6718L61.0605 50.6491L61.0705 50.6184L61.0888 50.5911C62.6179 48.3092 64.0732 46.7625 65.8429 45.7107L66.4694 45.056C66.592 44.928 66.7491 44.8314 66.925 44.776L73.123 42.8222C73.7746 42.6168 74.4653 43.0211 74.5337 43.648L75.0217 48.1092L80.2699 83.8743L82.195 92.8932L82.3242 93.3657C82.3797 93.5678 82.5047 93.7489 82.6804 93.8817L86.0451 96.4226C87.0491 92.9405 88.077 89.6093 89.0788 86.3645C94.7574 67.9687 99.5767 52.3555 94.163 27.8231L94.6863 27.7266C95.1573 29.862 95.5514 31.9306 95.8745 33.9399L95.332 29.1959C95.309 28.9915 95.3565 28.7948 95.4569 28.6266C95.4249 28.515 95.4249 28.515 95.4254 28.515L95.4259 28.5148L95.4291 28.514L95.442 28.5111L95.4905 28.4996C95.5098 28.495 95.5338 28.4894 95.5621 28.4828C95.7255 28.2968 95.9631 28.1651 96.2408 28.1283L98.8008 27.7886C98.8521 27.7783 98.9044 27.7679 98.9573 27.7575C101.08 27.3372 103.926 26.8322 106.806 26.4954C108.29 26.322 109.787 26.1925 111.203 26.1428L111.622 26.0872C111.726 26.0733 111.833 26.0738 111.937 26.0885L112.173 26.1215C113.145 26.1139 114.065 26.1503 114.899 26.2435C115.921 26.3577 116.831 26.5587 117.555 26.8785L117.922 26.9302C118.395 26.9967 118.762 27.3424 118.82 27.7765L118.822 27.7911C119.035 28.0569 119.183 28.3611 119.251 28.7075C119.789 31.4113 121.793 46.9301 120.657 64.1578C120.186 71.2958 119.176 78.7335 117.297 85.6781C116.819 88.0511 116.316 90.1658 115.785 91.9686C115.16 94.0872 113.74 96.5686 112.109 98.9923C110.266 102.363 108.064 105.4 105.44 107.952C105.014 108.536 104.709 108.996 104.571 109.298C103.665 111.277 82.6804 114.04 80.4093 111.231C80.1423 111.315 79.8678 111.351 79.5869 111.337C79.5351 111.335 79.4833 111.331 79.4315 111.325C79.2115 111.605 78.2909 111.856 77.4125 112.096C76.3343 112.39 75.3186 112.667 75.7346 112.96C76.5191 113.511 71.3229 110.107 70.3945 108.078C70.2378 107.735 70.0789 107.405 69.9144 107.063C69.1047 105.379 68.1588 103.411 66.6565 98.3147C64.849 92.1824 63.1008 85.8538 61.8505 74.6387C61.1128 68.0208 60.9668 60.8844 60.971 56.1456L56.5101 64.5231C55.2547 67.6277 53.8229 70.9614 52.2829 74.1872C49.6451 79.7118 46.6788 84.9419 43.7235 88.1516C43.0449 88.8888 42.3608 89.5258 41.675 90.0369C41.618 90.1248 41.5778 90.2 41.5584 90.26C41.4876 90.4792 40.964 90.6808 40.3253 90.8722C39.9701 91.045 39.6151 91.1792 39.2609 91.2715C38.9907 91.3423 38.7209 91.3882 38.4522 91.4077C37.8863 91.5942 37.5495 91.7782 37.8204 91.9686C38.1336 92.1888 37.4935 91.7782 36.5523 91.0767C35.9976 90.8312 35.4639 90.4523 34.9524 89.9354C34.7655 89.7465 34.5809 89.5444 34.3988 89.3291C33.5421 88.5588 32.7837 87.7494 32.4804 87.0869C32.3237 86.7443 32.1648 86.4138 32.0003 86.072C31.1907 84.3879 30.2447 82.4201 28.7424 77.3236C26.9349 71.1913 25.1867 64.8628 23.9364 53.6476L23.9305 53.5946C22.9373 46.9826 22.2196 40.7341 21.7431 36.0428C21.4885 33.5358 21.3027 31.4732 21.1806 30.0372C21.1196 29.3192 21.0744 28.7579 21.0445 28.3759C21.0296 28.1849 21.0184 28.0388 21.011 27.9403L21.0027 27.8288L21 27.7916C21 27.7911 21 27.791 21.2664 27.7748C21.4128 27.766 21.4787 27.7621 21.5085 27.7604C21.598 27.6411 21.7174 27.5393 21.8607 27.4644L28.6554 23.915C28.7133 23.8847 28.7741 23.8595 28.8371 23.8397L35.2089 21.8311C35.252 21.8175 35.2952 21.8066 35.3385 21.7982L35.9039 21.5494ZM80.0932 110.395C80.1129 110.399 80.1321 110.403 80.1519 110.407C80.154 110.535 80.169 110.659 80.1983 110.78C80.0365 110.827 79.8753 110.85 79.7145 110.852C79.8176 110.715 79.9468 110.56 80.0932 110.395ZM43.9313 70.6231L40.5931 58.4165L46.1159 70.5928L45.8392 70.9502C45.3117 71.6316 44.1528 71.433 43.9313 70.6231ZM45.6912 84.8414L49.5632 77.5697L49.8151 77.474L49.7226 77.2704L53.7753 69.6592C53.14 71.1054 52.4774 72.5597 51.7935 73.9919C49.8768 78.0061 47.7985 81.8377 45.6912 84.8414ZM79.7343 83.8948L76.5997 62.5335L78.3966 78.9614C78.402 79.0083 78.411 79.0552 78.4233 79.1011L79.7343 83.8948ZM86.4996 96.7658L87.8437 97.7807C87.6557 97.2012 87.5067 96.7492 87.3892 96.3962C87.1804 95.7685 87.1612 94.507 87.3711 93.8793L90.9537 83.1816L93.3567 74.1506L93.8389 71.9065C92.6064 76.7437 91.1235 81.5463 89.5797 86.5465V86.547C88.5613 89.8451 87.5163 93.2295 86.4996 96.7658ZM95.8147 62.7098L96.2782 60.5528C96.2884 60.5056 96.2948 60.4578 96.2974 60.4097L96.3685 59.0001C96.2083 60.2499 96.023 61.4852 95.8147 62.7098ZM97.0269 45.9608L97.091 44.6899C97.0936 44.6411 97.092 44.5921 97.0861 44.5434L96.8725 42.6715C96.9457 43.7848 96.997 44.8807 97.0269 45.9608ZM88.0685 99.0807C87.9141 100.156 86.9252 101.469 85.6948 102.855L88.0685 99.0807Z" fill="white" fill-opacity="0.8"/>
</g>
<path d="M32.08 123.144C32.272 123.8 32.48 124.544 32.704 125.376C32.944 126.192 33.192 127.04 33.448 127.92C33.72 128.8 33.992 129.68 34.264 130.56C34.536 131.44 34.8 132.256 35.056 133.008C35.264 132.192 35.472 131.304 35.68 130.344C35.904 129.384 36.112 128.392 36.304 127.368C36.496 126.344 36.68 125.328 36.856 124.32C37.048 123.296 37.224 122.312 37.384 121.368H41.272C40.712 124.152 40.064 126.976 39.328 129.84C38.608 132.704 37.824 135.424 36.976 138H33.544C32.984 136.464 32.44 134.856 31.912 133.176C31.384 131.48 30.864 129.784 30.352 128.088C29.84 129.784 29.328 131.48 28.816 133.176C28.304 134.856 27.768 136.464 27.208 138H23.776C22.928 135.424 22.136 132.704 21.4 129.84C20.68 126.976 20.04 124.152 19.48 121.368H23.536C23.696 122.312 23.872 123.296 24.064 124.32C24.256 125.328 24.456 126.344 24.664 127.368C24.872 128.392 25.08 129.384 25.288 130.344C25.512 131.304 25.736 132.192 25.96 133.008C26.248 132.224 26.528 131.392 26.8 130.512C27.072 129.632 27.336 128.752 27.592 127.872C27.848 126.992 28.08 126.144 28.288 125.328C28.512 124.512 28.712 123.784 28.888 123.144H32.08ZM54.4489 131.664C54.4489 132.656 54.3049 133.568 54.0169 134.4C53.7289 135.216 53.3129 135.92 52.7689 136.512C52.2249 137.088 51.5689 137.536 50.8009 137.856C50.0489 138.176 49.2009 138.336 48.2569 138.336C47.3289 138.336 46.4809 138.176 45.7129 137.856C44.9609 137.536 44.3129 137.088 43.7689 136.512C43.2249 135.92 42.8009 135.216 42.4969 134.4C42.1929 133.568 42.0409 132.656 42.0409 131.664C42.0409 130.672 42.1929 129.768 42.4969 128.952C42.8169 128.136 43.2489 127.44 43.7929 126.864C44.3529 126.288 45.0089 125.84 45.7609 125.52C46.5289 125.2 47.3609 125.04 48.2569 125.04C49.1689 125.04 50.0009 125.2 50.7529 125.52C51.5209 125.84 52.1769 126.288 52.7209 126.864C53.2649 127.44 53.6889 128.136 53.9929 128.952C54.2969 129.768 54.4489 130.672 54.4489 131.664ZM50.8009 131.664C50.8009 130.56 50.5769 129.696 50.1289 129.072C49.6969 128.432 49.0729 128.112 48.2569 128.112C47.4409 128.112 46.8089 128.432 46.3609 129.072C45.9129 129.696 45.6889 130.56 45.6889 131.664C45.6889 132.768 45.9129 133.648 46.3609 134.304C46.8089 134.944 47.4409 135.264 48.2569 135.264C49.0729 135.264 49.6969 134.944 50.1289 134.304C50.5769 133.648 50.8009 132.768 50.8009 131.664ZM64.8271 128.544C64.5071 128.464 64.1311 128.384 63.6991 128.304C63.2671 128.208 62.8031 128.16 62.3071 128.16C62.0831 128.16 61.8111 128.184 61.4911 128.232C61.1871 128.264 60.9551 128.304 60.7951 128.352V138H57.2191V126.048C57.8591 125.824 58.6111 125.616 59.4751 125.424C60.3551 125.216 61.3311 125.112 62.4031 125.112C62.5951 125.112 62.8271 125.128 63.0991 125.16C63.3711 125.176 63.6431 125.208 63.9151 125.256C64.1871 125.288 64.4591 125.336 64.7311 125.4C65.0031 125.448 65.2351 125.512 65.4271 125.592L64.8271 128.544ZM70.1577 131.592C70.1577 132.696 70.4057 133.584 70.9017 134.256C71.3977 134.928 72.1337 135.264 73.1097 135.264C73.4297 135.264 73.7257 135.256 73.9977 135.24C74.2697 135.208 74.4937 135.176 74.6697 135.144V128.64C74.4457 128.496 74.1497 128.376 73.7817 128.28C73.4297 128.184 73.0697 128.136 72.7017 128.136C71.0057 128.136 70.1577 129.288 70.1577 131.592ZM78.2457 137.592C77.9257 137.688 77.5577 137.784 77.1417 137.88C76.7257 137.96 76.2857 138.032 75.8217 138.096C75.3737 138.16 74.9097 138.208 74.4297 138.24C73.9657 138.288 73.5177 138.312 73.0857 138.312C72.0457 138.312 71.1177 138.16 70.3017 137.856C69.4857 137.552 68.7977 137.12 68.2377 136.56C67.6777 135.984 67.2457 135.296 66.9417 134.496C66.6537 133.68 66.5097 132.768 66.5097 131.76C66.5097 130.736 66.6377 129.816 66.8937 129C67.1497 128.168 67.5177 127.464 67.9977 126.888C68.4777 126.312 69.0617 125.872 69.7497 125.568C70.4537 125.264 71.2537 125.112 72.1497 125.112C72.6457 125.112 73.0857 125.16 73.4697 125.256C73.8697 125.352 74.2697 125.488 74.6697 125.664V119.952L78.2457 119.376V137.592ZM92.9941 123.144C93.1861 123.8 93.3941 124.544 93.6181 125.376C93.8581 126.192 94.1061 127.04 94.3621 127.92C94.6341 128.8 94.9061 129.68 95.1781 130.56C95.4501 131.44 95.7141 132.256 95.9701 133.008C96.1781 132.192 96.3861 131.304 96.5941 130.344C96.8181 129.384 97.0261 128.392 97.2181 127.368C97.4101 126.344 97.5941 125.328 97.7701 124.32C97.9621 123.296 98.1381 122.312 98.2981 121.368H102.186C101.626 124.152 100.978 126.976 100.242 129.84C99.5221 132.704 98.7381 135.424 97.8901 138H94.4581C93.8981 136.464 93.3541 134.856 92.8261 133.176C92.2981 131.48 91.7781 129.784 91.2661 128.088C90.7541 129.784 90.2421 131.48 89.7301 133.176C89.2181 134.856 88.6821 136.464 88.1221 138H84.6901C83.8421 135.424 83.0501 132.704 82.3141 129.84C81.5941 126.976 80.9541 124.152 80.3941 121.368H84.4501C84.6101 122.312 84.7861 123.296 84.9781 124.32C85.1701 125.328 85.3701 126.344 85.5781 127.368C85.7861 128.392 85.9941 129.384 86.2021 130.344C86.4261 131.304 86.6501 132.192 86.8741 133.008C87.1621 132.224 87.4421 131.392 87.7141 130.512C87.9861 129.632 88.2501 128.752 88.5061 127.872C88.7621 126.992 88.9941 126.144 89.2021 125.328C89.4261 124.512 89.6261 123.784 89.8021 123.144H92.9941ZM107.928 138H104.352V125.376H107.928V138ZM108.264 121.728C108.264 122.384 108.048 122.904 107.616 123.288C107.2 123.656 106.704 123.84 106.128 123.84C105.552 123.84 105.048 123.656 104.616 123.288C104.2 122.904 103.992 122.384 103.992 121.728C103.992 121.072 104.2 120.56 104.616 120.192C105.048 119.808 105.552 119.616 106.128 119.616C106.704 119.616 107.2 119.808 107.616 120.192C108.048 120.56 108.264 121.072 108.264 121.728ZM120.769 127.776C120.481 128.096 120.089 128.528 119.593 129.072C119.113 129.616 118.593 130.216 118.033 130.872C117.473 131.528 116.905 132.216 116.329 132.936C115.769 133.656 115.257 134.352 114.793 135.024H120.889V138H110.449V135.888C110.785 135.312 111.185 134.696 111.649 134.04C112.129 133.368 112.625 132.696 113.137 132.024C113.665 131.352 114.185 130.704 114.697 130.08C115.209 129.44 115.681 128.864 116.113 128.352H110.737V125.376H120.769V127.776Z" fill="white" fill-opacity="0.8"/>
<defs>
<filter id="filter0_d_5_1028" x="0" y="0.549377" width="150" height="141.47" filterUnits="userSpaceOnUse" color-interpolation-filters="sRGB">
<feFlood flood-opacity="0" result="BackgroundImageFix"/>
<feColorMatrix in="SourceAlpha" type="matrix" values="0 0 0 0 0 0 0 0 0 0 0 0 0 0 0 0 0 0 127 0" result="hardAlpha"/>
<feOffset dx="4" dy="4"/>
<feGaussianBlur stdDeviation="12.5"/>
<feColorMatrix type="matrix" values="0 0 0 0 0 0 0 0 0 0 0 0 0 0 0 0 0 0 0.5 0"/>
<feBlend mode="normal" in2="BackgroundImageFix" result="effect1_dropShadow_5_1028"/>
<feBlend mode="normal" in="SourceGraphic" in2="effect1_dropShadow_5_1028" result="shape"/>
</filter>
</defs>
</svg>
