<svg width="188" height="188" viewBox="0 0 188 188" fill="none" xmlns="http://www.w3.org/2000/svg">
<path fill-rule="evenodd" clip-rule="evenodd" d="M27.9098 0L27.9841 0.602994C28.6542 0.864395 29.1716 1.48073 29.2504 2.26885L33.8061 47.8256L36.9867 73.6241L47.7159 99.5004L74.3176 61.911C74.4587 61.4553 74.5795 61.062 74.6791 60.7359C74.7911 60.3693 74.8763 60.0876 74.9334 59.8978L74.998 59.6827L75.0182 59.6148L75.0192 59.6115C75.0192 59.6114 75.0193 59.6113 75.0206 59.6116C75.0218 59.6119 75.0239 59.6124 75.028 59.6136C75.0421 59.6175 75.0789 59.6283 75.1755 59.6569L75.0195 59.6104L75.0382 59.5476L75.0725 59.4916C77.936 54.8173 80.6611 51.6488 83.9752 49.4942L85.1485 48.1531C85.3781 47.8908 85.6722 47.693 86.0017 47.5794L97.6084 43.5771C98.8286 43.1563 100.122 43.9845 100.25 45.2688L101.164 54.4076L110.992 127.672L114.597 146.147L114.839 147.115C114.943 147.529 115.177 147.9 115.506 148.172L121.807 153.377C123.687 146.244 125.612 139.42 127.488 132.773L127.488 132.772C138.122 95.0884 147.147 63.1061 137.009 12.8517L137.989 12.6539C138.871 17.0284 139.609 21.2659 140.214 25.3818L139.198 15.6639C139.155 15.2452 139.244 14.8422 139.432 14.4977C139.372 14.2691 139.372 14.2691 139.373 14.269L139.374 14.2686L139.38 14.267L139.404 14.261L139.495 14.2374C139.531 14.228 139.576 14.2165 139.629 14.203C139.935 13.822 140.38 13.5523 140.9 13.4768L145.694 12.781C145.79 12.7599 145.888 12.7386 145.987 12.7173C149.963 11.8562 155.291 10.8219 160.685 10.1319C163.463 9.77666 166.267 9.51143 168.919 9.40959L169.703 9.29577C169.899 9.26729 170.098 9.26814 170.294 9.29828L170.735 9.36603C172.555 9.3503 174.278 9.42493 175.841 9.61592C177.754 9.8498 179.459 10.2616 180.814 10.9167L181.502 11.0225C182.387 11.1587 183.074 11.867 183.183 12.7562L183.187 12.786C183.585 13.3305 183.862 13.9538 183.991 14.6634C184.998 20.202 188.75 51.9921 186.623 87.2829C185.741 101.905 183.85 117.141 180.33 131.367C179.436 136.228 178.494 140.56 177.499 144.253C176.329 148.593 173.669 153.676 170.615 158.641C167.165 165.546 163.041 171.767 158.127 176.994C157.329 178.192 156.758 179.134 156.499 179.753C154.803 183.807 115.506 189.466 111.253 183.711C110.753 183.883 110.239 183.957 109.713 183.929C109.616 183.924 109.519 183.916 109.422 183.904C109.01 184.478 107.286 184.992 105.641 185.484C103.622 186.086 101.72 186.654 102.499 187.253C103.968 188.382 94.2374 181.409 92.4988 177.253C92.2053 176.551 91.9077 175.874 91.5997 175.173C90.0835 171.724 88.3121 167.693 85.4988 157.253C82.114 144.691 78.8402 131.727 76.4988 108.753C75.1173 95.1963 74.8439 80.5773 74.8519 70.8699L66.4982 88.0312C64.1471 94.3909 61.466 101.22 58.5821 107.828C53.6424 119.145 48.0875 129.859 42.5532 136.434C41.2825 137.944 40.0014 139.249 38.7171 140.296C38.6103 140.476 38.5351 140.63 38.4988 140.753C38.3662 141.202 37.3856 141.615 36.1896 142.007C35.5244 142.361 34.8597 142.636 34.1964 142.825C33.6904 142.97 33.1852 143.064 32.6819 143.104C31.6222 143.486 30.9914 143.863 31.4988 144.253C32.0853 144.704 30.8866 143.863 29.1241 142.426C28.0853 141.923 27.0858 141.147 26.1281 140.088C25.778 139.701 25.4324 139.287 25.0913 138.846C23.487 137.268 22.0667 135.61 21.4988 134.253C21.2053 133.551 20.9078 132.874 20.5998 132.174C19.0836 128.724 17.3121 124.693 14.4988 114.253C11.114 101.691 7.84016 88.7271 5.49883 65.7528L5.48776 65.6442C3.62783 52.0997 2.28384 39.2996 1.39159 29.6897C0.91477 24.554 0.566905 20.3289 0.338222 17.3873C0.22388 15.9165 0.139331 14.7665 0.0833542 13.984C0.0553656 13.5928 0.0345198 13.2935 0.0206641 13.0918L0.00510398 12.8633L1.22549e-06 12.7871C-5.6293e-05 12.7862 -8.56817e-05 12.7858 0.498828 12.7528C0.772995 12.7347 0.8965 12.7267 0.952151 12.7232C1.11989 12.4789 1.34336 12.2702 1.61182 12.1168L14.3359 4.84591C14.4443 4.78398 14.5582 4.73234 14.6762 4.69165L26.6084 0.577108C26.689 0.549291 26.77 0.526933 26.851 0.509804L27.9098 0ZM110.661 182C110.698 182.008 110.734 182.016 110.771 182.024C110.775 182.286 110.803 182.541 110.858 182.788C110.555 182.885 110.253 182.932 109.952 182.935C110.145 182.655 110.387 182.338 110.661 182ZM42.9423 100.527L36.6911 75.522L47.0333 100.465L46.5152 101.197C45.5274 102.593 43.3571 102.186 42.9423 100.527ZM46.238 129.653L53.4889 114.757L53.9607 114.561L53.7875 114.144L61.3768 98.5524C60.1871 101.515 58.9463 104.494 57.6656 107.428C54.0763 115.651 50.1844 123.5 46.238 129.653ZM109.989 127.714L104.119 83.9556L107.484 117.608C107.494 117.704 107.511 117.8 107.534 117.894L109.989 127.714ZM122.658 154.08L125.175 156.159C124.823 154.972 124.544 154.046 124.324 153.323C123.933 152.037 123.897 149.453 124.29 148.167L130.999 126.253L135.499 107.753L136.402 103.156C134.094 113.065 131.317 122.903 128.426 133.146L128.426 133.147C126.519 139.903 124.562 146.836 122.658 154.08ZM140.102 84.3166L140.97 79.8981C140.989 79.8014 141.001 79.7034 141.006 79.6049L141.139 76.7175C140.839 79.2776 140.492 81.8082 140.102 84.3166ZM142.372 50.0066L142.492 47.4032C142.497 47.3031 142.494 47.2028 142.483 47.1031L142.083 43.2685C142.22 45.5491 142.316 47.794 142.372 50.0066ZM125.596 158.822C125.307 161.024 123.455 163.715 121.151 166.553L125.596 158.822Z" fill="url(#paint0_linear_1_27)"/>
<defs>
<linearGradient id="paint0_linear_1_27" x1="93.6327" y1="0" x2="93.6327" y2="187.375" gradientUnits="userSpaceOnUse">
<stop stop-color="#89475E"/>
<stop offset="0.5" stop-color="#4E562D"/>
<stop offset="1" stop-color="#89475E"/>
</linearGradient>
</defs>
</svg>
