<svg width="189" height="189" viewBox="0 0 189 189" fill="none" xmlns="http://www.w3.org/2000/svg">
<path d="M1 13C1 13 8 119 27 140C46 161 76 60 76 60M76 60C76.4126 105.994 106 225 119 169M76 60C82.2577 49.7851 87.718 47.0331 100 46L111 128L119 169M119 169C132 113 151.189 78.3806 138 13M1 14L28 1.00003L37 74L54 115M108 181C124.012 184.948 137.989 185.055 154 181C199 142 186 26.0001 184 15.0001C182 4.00006 140 15.0001 140 15.0001M32 144.5C33.4689 145.629 23.7385 138.656 22 134.5C20.2615 130.344 18.3849 127.062 15 114.5C11.6151 101.938 8.34134 88.9743 6 66C3.94391 45.8247 1.64311 20.2115 1.11301 14.27C1.04358 13.4918 1.43468 12.7516 2.11299 12.364L14.8371 5.09312C14.9455 5.03119 15.0594 4.97955 15.1774 4.93886L27.1095 0.824321C28.3298 0.403543 29.6232 1.2317 29.7516 2.51606L36.9855 74.8552C36.9952 74.9516 37.0118 75.0472 37.0353 75.1413L43.4435 100.774C43.8582 102.433 46.0286 102.84 47.0163 101.444L76.3433 60.0041C77.7631 57.9978 80.8499 59.8248 79.7741 62.0348L44.6447 134.203C44.5489 134.4 44.4224 134.578 44.2693 134.735C43.2697 135.757 39.3478 139.822 39 141C38.6011 142.351 30.5311 143.371 32 144.5ZM103 187.5C104.469 188.629 94.7385 181.656 93 177.5C91.2615 173.344 89.3849 170.062 86 157.5C82.6151 144.938 79.3413 131.974 77 109C74.8858 88.2545 75.3667 65.0208 75.4799 60.7083C75.492 60.2462 75.6663 59.8099 75.9707 59.4621L85.6497 48.4004C85.8792 48.138 86.1734 47.9402 86.5029 47.8266L98.1096 43.8243C99.3298 43.4035 100.623 44.2317 100.752 45.5161L107.986 117.855C107.995 117.952 108.012 118.047 108.035 118.141L115.34 147.362C115.444 147.776 115.678 148.147 116.007 148.419L125.698 156.425C126.45 157.046 126.644 158.118 126.158 158.964L115.63 177.274C115.544 177.424 115.441 177.559 115.32 177.683C114.412 178.61 110.354 182.801 110 184C109.601 185.351 101.531 186.371 103 187.5ZM131.5 126.5L124.791 148.415C124.398 149.7 124.434 152.284 124.826 153.57C125.109 154.502 125.489 155.771 126 157.5C127.919 164 109 177 111.5 183.5C114 190 155.261 184.156 157 180C158.739 175.844 174.615 157.062 178 144.5C181.385 131.938 184.159 111.974 186.5 89C188.804 66.3887 186.573 36.947 186.502 36.0224C186.499 35.9931 186.498 35.9855 186.495 35.9563L183.684 13.0034C183.575 12.1142 182.888 11.4059 182.003 11.2697L170.796 9.54549C170.6 9.51535 170.4 9.5145 170.204 9.54298L141.402 13.724C140.339 13.8782 139.588 14.8435 139.7 15.9111L142.984 47.3503C142.995 47.45 142.998 47.5503 142.993 47.6504L141.507 79.8521C141.502 79.9506 141.49 80.0486 141.471 80.1454L136 108L131.5 126.5Z" stroke="url(#paint0_linear_1_48)"/>
<defs>
<linearGradient id="paint0_linear_1_48" x1="147.633" y1="10.1111" x2="147.633" y2="184.001" gradientUnits="userSpaceOnUse">
<stop stop-color="#666666"/>
<stop offset="1"/>
</linearGradient>
</defs>
</svg>
