<svg width="102" height="20" viewBox="0 0 102 20" fill="none" xmlns="http://www.w3.org/2000/svg">
<path d="M13.08 4.144C13.272 4.8 13.48 5.544 13.704 6.376C13.944 7.192 14.192 8.04 14.448 8.92C14.72 9.8 14.992 10.68 15.264 11.56C15.536 12.44 15.8 13.256 16.056 14.008C16.264 13.192 16.472 12.304 16.68 11.344C16.904 10.384 17.112 9.392 17.304 8.368C17.496 7.344 17.68 6.328 17.856 5.32C18.048 4.296 18.224 3.312 18.384 2.368H22.272C21.712 5.152 21.064 7.976 20.328 10.84C19.608 13.704 18.824 16.424 17.976 19H14.544C13.984 17.464 13.44 15.856 12.912 14.176C12.384 12.48 11.864 10.784 11.352 9.088C10.84 10.784 10.328 12.48 9.816 14.176C9.304 15.856 8.768 17.464 8.208 19H4.776C3.928 16.424 3.136 13.704 2.4 10.84C1.68 7.976 1.04 5.152 0.48 2.368H4.536C4.696 3.312 4.872 4.296 5.064 5.32C5.256 6.328 5.456 7.344 5.664 8.368C5.872 9.392 6.08 10.384 6.288 11.344C6.512 12.304 6.736 13.192 6.96 14.008C7.248 13.224 7.528 12.392 7.8 11.512C8.072 10.632 8.336 9.752 8.592 8.872C8.848 7.992 9.08 7.144 9.288 6.328C9.512 5.512 9.712 4.784 9.888 4.144H13.08ZM35.4489 12.664C35.4489 13.656 35.3049 14.568 35.0169 15.4C34.7289 16.216 34.3129 16.92 33.7689 17.512C33.2249 18.088 32.5689 18.536 31.8009 18.856C31.0489 19.176 30.2009 19.336 29.2569 19.336C28.3289 19.336 27.4809 19.176 26.7129 18.856C25.9609 18.536 25.3129 18.088 24.7689 17.512C24.2249 16.92 23.8009 16.216 23.4969 15.4C23.1929 14.568 23.0409 13.656 23.0409 12.664C23.0409 11.672 23.1929 10.768 23.4969 9.952C23.8169 9.136 24.2489 8.44 24.7929 7.864C25.3529 7.288 26.0089 6.84 26.7609 6.52C27.5289 6.2 28.3609 6.04 29.2569 6.04C30.1689 6.04 31.0009 6.2 31.7529 6.52C32.5209 6.84 33.1769 7.288 33.7209 7.864C34.2649 8.44 34.6889 9.136 34.9929 9.952C35.2969 10.768 35.4489 11.672 35.4489 12.664ZM31.8009 12.664C31.8009 11.56 31.5769 10.696 31.1289 10.072C30.6969 9.432 30.0729 9.112 29.2569 9.112C28.4409 9.112 27.8089 9.432 27.3609 10.072C26.9129 10.696 26.6889 11.56 26.6889 12.664C26.6889 13.768 26.9129 14.648 27.3609 15.304C27.8089 15.944 28.4409 16.264 29.2569 16.264C30.0729 16.264 30.6969 15.944 31.1289 15.304C31.5769 14.648 31.8009 13.768 31.8009 12.664ZM45.8271 9.544C45.5071 9.464 45.1311 9.384 44.6991 9.304C44.2671 9.208 43.8031 9.16 43.3071 9.16C43.0831 9.16 42.8111 9.184 42.4911 9.232C42.1871 9.264 41.9551 9.304 41.7951 9.352V19H38.2191V7.048C38.8591 6.824 39.6111 6.616 40.4751 6.424C41.3551 6.216 42.3311 6.112 43.4031 6.112C43.5951 6.112 43.8271 6.128 44.0991 6.16C44.3711 6.176 44.6431 6.208 44.9151 6.256C45.1871 6.288 45.4591 6.336 45.7311 6.4C46.0031 6.448 46.2351 6.512 46.4271 6.592L45.8271 9.544ZM51.1577 12.592C51.1577 13.696 51.4057 14.584 51.9017 15.256C52.3977 15.928 53.1337 16.264 54.1097 16.264C54.4297 16.264 54.7257 16.256 54.9977 16.24C55.2697 16.208 55.4937 16.176 55.6697 16.144V9.64C55.4457 9.496 55.1497 9.376 54.7817 9.28C54.4297 9.184 54.0697 9.136 53.7017 9.136C52.0057 9.136 51.1577 10.288 51.1577 12.592ZM59.2457 18.592C58.9257 18.688 58.5577 18.784 58.1417 18.88C57.7257 18.96 57.2857 19.032 56.8217 19.096C56.3737 19.16 55.9097 19.208 55.4297 19.24C54.9657 19.288 54.5177 19.312 54.0857 19.312C53.0457 19.312 52.1177 19.16 51.3017 18.856C50.4857 18.552 49.7977 18.12 49.2377 17.56C48.6777 16.984 48.2457 16.296 47.9417 15.496C47.6537 14.68 47.5097 13.768 47.5097 12.76C47.5097 11.736 47.6377 10.816 47.8937 10C48.1497 9.168 48.5177 8.464 48.9977 7.888C49.4777 7.312 50.0617 6.872 50.7497 6.568C51.4537 6.264 52.2537 6.112 53.1497 6.112C53.6457 6.112 54.0857 6.16 54.4697 6.256C54.8697 6.352 55.2697 6.488 55.6697 6.664V0.951999L59.2457 0.375999V18.592ZM73.9941 4.144C74.1861 4.8 74.3941 5.544 74.6181 6.376C74.8581 7.192 75.1061 8.04 75.3621 8.92C75.6341 9.8 75.9061 10.68 76.1781 11.56C76.4501 12.44 76.7141 13.256 76.9701 14.008C77.1781 13.192 77.3861 12.304 77.5941 11.344C77.8181 10.384 78.0261 9.392 78.2181 8.368C78.4101 7.344 78.5941 6.328 78.7701 5.32C78.9621 4.296 79.1381 3.312 79.2981 2.368H83.1861C82.6261 5.152 81.9781 7.976 81.2421 10.84C80.5221 13.704 79.7381 16.424 78.8901 19H75.4581C74.8981 17.464 74.3541 15.856 73.8261 14.176C73.2981 12.48 72.7781 10.784 72.2661 9.088C71.7541 10.784 71.2421 12.48 70.7301 14.176C70.2181 15.856 69.6821 17.464 69.1221 19H65.6901C64.8421 16.424 64.0501 13.704 63.3141 10.84C62.5941 7.976 61.9541 5.152 61.3941 2.368H65.4501C65.6101 3.312 65.7861 4.296 65.9781 5.32C66.1701 6.328 66.3701 7.344 66.5781 8.368C66.7861 9.392 66.9941 10.384 67.2021 11.344C67.4261 12.304 67.6501 13.192 67.8741 14.008C68.1621 13.224 68.4421 12.392 68.7141 11.512C68.9861 10.632 69.2501 9.752 69.5061 8.872C69.7621 7.992 69.9941 7.144 70.2021 6.328C70.4261 5.512 70.6261 4.784 70.8021 4.144H73.9941ZM88.9279 19H85.3519V6.376H88.9279V19ZM89.2639 2.728C89.2639 3.384 89.0479 3.904 88.6159 4.288C88.1999 4.656 87.7039 4.84 87.1279 4.84C86.5519 4.84 86.0479 4.656 85.6159 4.288C85.1999 3.904 84.9919 3.384 84.9919 2.728C84.9919 2.072 85.1999 1.56 85.6159 1.192C86.0479 0.807999 86.5519 0.615999 87.1279 0.615999C87.7039 0.615999 88.1999 0.807999 88.6159 1.192C89.0479 1.56 89.2639 2.072 89.2639 2.728ZM101.769 8.776C101.481 9.096 101.089 9.528 100.593 10.072C100.113 10.616 99.5934 11.216 99.0334 11.872C98.4734 12.528 97.9054 13.216 97.3294 13.936C96.7694 14.656 96.2574 15.352 95.7934 16.024H101.889V19H91.4494V16.888C91.7854 16.312 92.1854 15.696 92.6494 15.04C93.1294 14.368 93.6254 13.696 94.1374 13.024C94.6654 12.352 95.1854 11.704 95.6974 11.08C96.2094 10.44 96.6814 9.864 97.1134 9.352H91.7374V6.376H101.769V8.776Z" fill="white" fill-opacity="0.8"/>
</svg>
